<svg width="132" height="144" viewBox="0 0 132 144" fill="none" xmlns="http://www.w3.org/2000/svg">
<g filter="url(#filter0_d_313_10)">
<path d="M27.1422 83.0484C25.9149 86.3406 24.8326 89.4391 23.8491 92.5137C23.5572 93.4262 24.6155 94.1944 25.4249 93.6816C31.5023 89.8312 38.5398 87.3541 46.5138 86.3535C63.5631 84.2197 78.7417 73.0847 86.6337 59.0054C86.8499 58.6197 86.7787 58.1389 86.4662 57.8261L77.6681 49.0198C77.2783 48.6297 77.2779 47.9976 77.6673 47.607L86.6967 38.5503L93.5855 31.6434C96.3335 28.891 99.4075 23.9773 102.659 16.9793C102.993 16.2603 102.38 15.4682 101.599 15.6025C64.1467 22.0406 41.0809 45.5244 27.1422 83.0484ZM97.1495 47.6C96.7599 47.9906 96.7602 48.6229 97.1502 49.0131L102.897 54.7632C103.164 55.0309 103.259 55.4246 103.136 55.7823C96.0562 76.2867 75.5194 96.6324 48.2222 100.05C30.0527 102.327 18.6239 114.705 13.9292 137.19C13.8318 137.657 13.4207 138 12.9438 138H1.18015C0.562313 138 0.0869841 137.477 0.18794 136.868C7.11216 95.0619 21.4638 0.87882 122.581 0.00610692C123.263 0.000216837 123.776 0.672463 123.557 1.31903C116.817 21.2669 110.089 34.6203 103.354 41.3793L97.1495 47.6Z" fill="white"/>
</g>
<defs>
<filter id="filter0_d_313_10" x="0.17437" y="0.00606871" width="131.434" height="143.994" filterUnits="userSpaceOnUse" color-interpolation-filters="sRGB">
<feFlood flood-opacity="0" result="BackgroundImageFix"/>
<feColorMatrix in="SourceAlpha" type="matrix" values="0 0 0 0 0 0 0 0 0 0 0 0 0 0 0 0 0 0 127 0" result="hardAlpha"/>
<feOffset dx="7" dy="5"/>
<feGaussianBlur stdDeviation="0.5"/>
<feComposite in2="hardAlpha" operator="out"/>
<feColorMatrix type="matrix" values="0 0 0 0 0.446273 0 0 0 0 0.436888 0 0 0 0 1 0 0 0 1 0"/>
<feBlend mode="normal" in2="BackgroundImageFix" result="effect1_dropShadow_313_10"/>
<feBlend mode="normal" in="SourceGraphic" in2="effect1_dropShadow_313_10" result="shape"/>
</filter>
</defs>
</svg>
