<svg width="54" height="54" viewBox="0 0 54 54" fill="none" xmlns="http://www.w3.org/2000/svg">
<path d="M54 27C54 41.9117 41.9117 54 27 54C12.0883 54 0 41.9117 0 27C0 12.0883 12.0883 0 27 0C41.9117 0 54 12.0883 54 27Z" fill="url(#paint0_linear_314_9)"/>
<g filter="url(#filter0_dd_314_9)">
<path d="M17.5667 30.4612C17.5429 30.526 17.5194 30.5905 17.4961 30.6548C17.169 31.5572 18.2722 32.4016 19.1659 32.051C20.1202 31.6766 21.1497 31.4165 22.2533 31.2755C26.1878 30.7741 29.7104 28.2549 31.6842 25.0132C31.911 24.6407 31.8391 24.1654 31.5338 23.8541L30.3063 22.603C29.9251 22.2144 29.9247 21.5921 30.3056 21.2031L31.975 19.4979L33.6417 17.7962C34.1338 17.2942 34.6691 16.5005 35.2331 15.4227C35.5998 14.7219 34.9944 13.9408 34.2237 14.1188C25.957 16.0282 20.7673 21.6867 17.5667 30.4612ZM35.0193 21.2013C34.6383 21.5903 34.6386 22.2128 35.02 22.6014L35.5745 23.1664C35.8359 23.4328 35.9301 23.8233 35.7988 24.1727C33.9565 29.076 29.0837 33.8318 22.6667 34.65C18.434 35.1903 15.7133 38.0377 14.5032 43.1938C14.394 43.6593 13.9851 44 13.5069 44H12.1767C11.56 44 11.089 43.4519 11.1881 42.8432C12.9015 32.322 16.7484 10.8623 39.6064 10.0252C40.2862 10.0003 40.7826 10.6652 40.5594 11.3077C39.0401 15.6808 37.5232 18.6432 36.005 20.1949L35.0193 21.2013Z" fill="white"/>
</g>
<defs>
<filter id="filter0_dd_314_9" x="11.1748" y="9.72466" width="35.7387" height="38.5753" filterUnits="userSpaceOnUse" color-interpolation-filters="sRGB">
<feFlood flood-opacity="0" result="BackgroundImageFix"/>
<feColorMatrix in="SourceAlpha" type="matrix" values="0 0 0 0 0 0 0 0 0 0 0 0 0 0 0 0 0 0 127 0" result="hardAlpha"/>
<feOffset dx="4" dy="2"/>
<feGaussianBlur stdDeviation="1.15"/>
<feComposite in2="hardAlpha" operator="out"/>
<feColorMatrix type="matrix" values="0 0 0 0 0.545142 0 0 0 0 0.682575 0 0 0 0 0.888724 0 0 0 1 0"/>
<feBlend mode="normal" in2="BackgroundImageFix" result="effect1_dropShadow_314_9"/>
<feColorMatrix in="SourceAlpha" type="matrix" values="0 0 0 0 0 0 0 0 0 0 0 0 0 0 0 0 0 0 127 0" result="hardAlpha"/>
<feOffset dx="3" dy="1"/>
<feComposite in2="hardAlpha" operator="out"/>
<feColorMatrix type="matrix" values="0 0 0 0 0.000104268 0 0 0 0 0.000104268 0 0 0 0 0.000104268 0 0 0 1 0"/>
<feBlend mode="normal" in2="effect1_dropShadow_314_9" result="effect2_dropShadow_314_9"/>
<feBlend mode="normal" in="SourceGraphic" in2="effect2_dropShadow_314_9" result="shape"/>
</filter>
<linearGradient id="paint0_linear_314_9" x1="47" y1="3.5" x2="-2.87316e-06" y2="63.5" gradientUnits="userSpaceOnUse">
<stop stop-color="#0032FF"/>
<stop offset="1" stop-color="#12F3E4"/>
</linearGradient>
</defs>
</svg>
