<svg width="131" height="78" viewBox="0 0 131 78" fill="none" xmlns="http://www.w3.org/2000/svg">
<path d="M53.8967 46.9404C54.4168 48.3575 54.8901 49.7111 55.3279 51.0436C55.6275 51.9553 54.5525 52.7395 53.7199 52.2623C50.6049 50.477 47.0677 49.312 43.1173 48.8085C33.7396 47.6164 25.379 41.4532 20.9461 33.6256C20.7308 33.2454 20.8011 32.7704 21.1075 32.4589L25.485 28.0083C25.8675 27.6194 25.8678 26.9958 25.4857 26.6066L20.7575 21.7893L16.9242 17.8854C15.4897 16.426 13.8956 13.8915 12.21 10.3179C11.8724 9.60221 12.4795 8.81609 13.2571 8.96244C33.6314 12.797 46.2392 26.0012 53.8967 46.9404ZM14.6447 26.6026C15.0269 26.9918 15.0266 27.6156 14.644 28.0045L11.9271 30.766C11.6648 31.0325 11.5714 31.4221 11.6946 31.7752C15.7113 43.2809 27.0846 54.632 42.1667 56.55C52.1835 57.8253 58.5186 64.7044 61.1755 77.1908C61.275 77.6584 61.6857 78 62.1637 78H67.8229C68.4397 78 68.9131 77.4688 68.814 76.86C64.9428 53.0771 56.7241 0.881224 1.40771 0.0110174C0.727269 0.00031312 0.218682 0.666718 0.435663 1.31172C4.12322 12.2734 7.80408 19.6323 11.4885 23.3883L14.6447 26.6026Z" fill="#91A0F8"/>
<path d="M77.1033 46.9404C76.5832 48.3575 76.1099 49.7111 75.6721 51.0436C75.3725 51.9553 76.4475 52.7395 77.2801 52.2623C80.3951 50.477 83.9323 49.312 87.8827 48.8085C97.2604 47.6164 105.621 41.4532 110.054 33.6256C110.269 33.2454 110.199 32.7704 109.893 32.4589L105.515 28.0083C105.133 27.6194 105.132 26.9958 105.514 26.6066L110.242 21.7893L114.076 17.8854C115.51 16.426 117.104 13.8915 118.79 10.3179C119.128 9.60221 118.521 8.81609 117.743 8.96244C97.3686 12.797 84.7608 26.0012 77.1033 46.9404ZM116.355 26.6026C115.973 26.9918 115.973 27.6156 116.356 28.0045L119.073 30.766C119.335 31.0325 119.429 31.4221 119.305 31.7752C115.289 43.2809 103.915 54.632 88.8333 56.55C78.8165 57.8253 72.4814 64.7044 69.8245 77.1908C69.725 77.6584 69.3143 78 68.8363 78H63.1771C62.5603 78 62.0869 77.4688 62.186 76.86C66.0572 53.0771 74.2759 0.881224 129.592 0.0110174C130.273 0.00031312 130.781 0.666718 130.564 1.31172C126.877 12.2734 123.196 19.6323 119.512 23.3883L116.355 26.6026Z" fill="#91A0F8" fill-opacity="0.960784"/>
</svg>
